<svg width="72" height="72" viewBox="0 0 72 72" fill="none" xmlns="http://www.w3.org/2000/svg">
<circle cx="36" cy="36" r="36" fill="#FD7A19"/>
<path d="M22.7447 20.8511H14.5745L11 24.4255V28H15.0851V29.5319H11V30.0426V31.5745H15.0851V33.1064H11V35.1489L12.5319 37.1915H18.1489V49.4468L22.7447 48.1702V34.1277H24.7872V35.1489H48.7872V34.1277H50.8298V47.9149H55.4255V34.1277H56.4468V41.2766H57.9787V27.4894H59V25.9575H57.9787V24.9362H56.4468V32.5958H55.4255V28.5106H54.9149H50.8298V32.5958H48.7872V32.0851V31.5745H24.7872V32.5958H22.7447V20.8511Z" fill="white"/>
<path d="M48.7871 30.0426H24.7871C25.6382 27.7447 27.3403 22.383 28.3616 19.5745C29.3779 16.7795 31.2552 16 32.1914 16H40.8722C43.119 16 44.8722 18.8936 45.468 20.3404L48.7871 30.0426Z" fill="white"/>
<path d="M24.7871 36.1701L48.7871 36.1701C47.936 38.468 46.2339 43.8297 45.2126 46.6382C44.1963 49.4331 42.319 50.2126 41.3829 50.2126L32.702 50.2126C30.4552 50.2126 28.702 47.319 28.1063 45.8722L24.7871 36.1701Z" fill="white"/>
<rect x="19.6816" y="22.3831" width="1.53191" height="24.5106" fill="#FD7A19"/>
<rect x="52.3613" y="29.532" width="1.53191" height="17.3617" fill="#FD7A19"/>
<circle cx="20.4478" cy="51.234" r="4.34043" fill="white"/>
<circle cx="53.1275" cy="51.234" r="4.34043" fill="white"/>
</svg>
