<svg width="56" height="55" viewBox="0 0 56 55" fill="none" xmlns="http://www.w3.org/2000/svg">
<circle cx="28.166" cy="27.5" r="27.5" fill="#FD7A19"/>
<path d="M43.3812 26.6825L41.93 25.2313C41.7653 25.0666 41.6633 24.8495 41.6415 24.6175L40.7607 15.2221C40.7125 14.7082 40.2812 14.3154 39.765 14.3154H15.9333C15.4172 14.3154 14.9858 14.7082 14.9377 15.2221L14.0521 24.6677C14.0333 24.8688 13.954 25.0595 13.8247 25.2146L12.5892 26.6972C12.4394 26.8769 12.3574 27.1035 12.3574 27.3374V32.9722V35.3037C12.3574 35.856 12.8051 36.3037 13.3574 36.3037H42.6741C43.2264 36.3037 43.6741 35.856 43.6741 35.3037V32.9722V27.3896C43.6741 27.1244 43.5687 26.87 43.3812 26.6825Z" stroke="white" stroke-width="3"/>
<path d="M15.3555 39.3011V38.3037C15.3555 37.1991 16.2509 36.3037 17.3555 36.3037H18.0197C19.1242 36.3037 20.0197 37.1991 20.0197 38.3037V39.3011C20.0197 40.4056 19.1242 41.3011 18.0197 41.3011H17.3555C16.2509 41.3011 15.3555 40.4056 15.3555 39.3011Z" stroke="white" stroke-width="3"/>
<path d="M36.0117 39.3011V38.3037C36.0117 37.1991 36.9071 36.3037 38.0117 36.3037H38.6759C39.7805 36.3037 40.6759 37.1991 40.6759 38.3037V39.3011C40.6759 40.4056 39.7805 41.3011 38.6759 41.3011H38.0117C36.9071 41.3011 36.0117 40.4056 36.0117 39.3011Z" stroke="white" stroke-width="3"/>
<path d="M42.9148 22.1806L45.1566 21.0443C45.3726 20.9348 45.6171 20.8943 45.8569 20.9282C46.9558 21.0837 47.2542 22.5311 46.3064 23.1086L44.16 24.4164C43.5561 24.7844 42.7682 24.5931 42.4002 23.9891C42.0117 23.3515 42.2488 22.5182 42.9148 22.1806Z" stroke="white" stroke-width="2"/>
<path d="M12.9036 22.1806L10.6618 21.0443C10.4457 20.9348 10.2013 20.8943 9.96149 20.9282C8.86253 21.0837 8.56415 22.5311 9.51198 23.1086L11.6583 24.4164C12.2623 24.7844 13.0502 24.5931 13.4182 23.9891C13.8067 23.3515 13.5695 22.5182 12.9036 22.1806Z" stroke="white" stroke-width="2"/>
<path d="M13.6887 24.6436C17.3534 25.9762 33.3449 26.6427 41.6738 24.6439" stroke="white" stroke-width="3"/>
<path d="M31.347 29.3076H24.0176L25.2923 33.3055H30.0723L31.347 29.3076Z" stroke="white"/>
<path d="M39.3436 31.3066V29.3076H37.3446H35.3457V31.3066H39.3436Z" stroke="white"/>
<path d="M20.6854 31.3066V29.3076H18.6864H16.6875V31.3066H20.6854Z" stroke="white"/>
<path d="M34.6782 33.3057H37.3435H40.0087M16.0215 33.3057H21.352" stroke="white"/>
</svg>
