<svg width="55" height="55" viewBox="0 0 55 55" fill="none" xmlns="http://www.w3.org/2000/svg">
<circle cx="27.5" cy="27.5" r="27.5" fill="#FD7A19"/>
<path d="M26.1912 43.4942V12.4742H28.8972V43.4942H26.1912ZM27.2142 39.8642C25.4102 39.8642 23.6832 39.6112 22.0332 39.1052C20.3832 38.5772 19.0742 37.9062 18.1062 37.0922L19.5912 33.7592C20.5152 34.4852 21.6592 35.0902 23.0232 35.5742C24.3872 36.0582 25.7842 36.3002 27.2142 36.3002C28.4242 36.3002 29.4032 36.1682 30.1512 35.9042C30.8992 35.6402 31.4492 35.2882 31.8012 34.8482C32.1532 34.3862 32.3292 33.8692 32.3292 33.2972C32.3292 32.5932 32.0762 32.0322 31.5702 31.6142C31.0642 31.1742 30.4042 30.8332 29.5902 30.5912C28.7982 30.3272 27.9072 30.0852 26.9172 29.8652C25.9492 29.6452 24.9702 29.3922 23.9802 29.1062C23.0122 28.7982 22.1212 28.4132 21.3072 27.9512C20.5152 27.4672 19.8662 26.8292 19.3602 26.0372C18.8542 25.2452 18.6012 24.2332 18.6012 23.0012C18.6012 21.7472 18.9312 20.6032 19.5912 19.5692C20.2732 18.5132 21.2962 17.6772 22.6602 17.0612C24.0462 16.4232 25.7952 16.1042 27.9072 16.1042C29.2932 16.1042 30.6682 16.2802 32.0322 16.6322C33.3962 16.9842 34.5842 17.4902 35.5962 18.1502L34.2432 21.4832C33.2092 20.8672 32.1422 20.4162 31.0422 20.1302C29.9422 19.8222 28.8862 19.6682 27.8742 19.6682C26.6862 19.6682 25.7182 19.8112 24.9702 20.0972C24.2442 20.3832 23.7052 20.7572 23.3532 21.2192C23.0232 21.6812 22.8582 22.2092 22.8582 22.8032C22.8582 23.5072 23.1002 24.0792 23.5842 24.5192C24.0902 24.9372 24.7392 25.2672 25.5312 25.5092C26.3452 25.7512 27.2472 25.9932 28.2372 26.2352C29.2272 26.4552 30.2062 26.7082 31.1742 26.9942C32.1642 27.2802 33.0552 27.6542 33.8472 28.1162C34.6612 28.5782 35.3102 29.2052 35.7942 29.9972C36.3002 30.7892 36.5532 31.7902 36.5532 33.0002C36.5532 34.2322 36.2122 35.3762 35.5302 36.4322C34.8702 37.4662 33.8472 38.3022 32.4612 38.9402C31.0752 39.5562 29.3262 39.8642 27.2142 39.8642Z" fill="white"/>
</svg>
