<svg width="72" height="73" viewBox="0 0 72 73" fill="none" xmlns="http://www.w3.org/2000/svg">
<ellipse cx="36.5158" cy="36.5" rx="35.0952" ry="36" fill="#FD7A19"/>
<rect x="30.6666" y="19.5" width="10.7235" height="3" fill="#FD7A19"/>
<rect x="30.6666" y="34.5" width="10.7235" height="7" fill="#FD7A19"/>
<g clip-path="url(#clip0_715_4364)">
<path d="M59.6281 26.7735C62.0989 27.8261 63.6897 28.9121 64.7077 30.7022C65.473 32.0468 65.8382 33.5386 66.0307 35.0709C66.3582 37.6794 66.0946 40.2063 65.0998 42.6569C64.1989 44.8746 62.6333 46.3623 60.4904 47.2024C56.9428 48.5934 53.3511 48.7007 49.79 47.2717C46.7915 46.0687 44.8026 43.8935 44.0848 40.607C43.48 37.8343 43.5833 35.0639 44.4439 32.3872C45.4565 29.2385 47.7503 27.4219 50.8143 26.5594C54.0202 25.6561 57.1756 25.7855 59.6271 26.7731L59.6281 26.7735ZM51.8177 33.0564C51.7891 33.1731 51.7108 33.3583 51.7021 33.5478C51.6175 35.325 51.4947 37.1023 51.4937 38.8796C51.4926 39.6582 51.7116 40.4467 51.8984 41.214C52.0697 41.9191 52.5725 42.3911 53.2228 42.6315C54.5019 43.1043 55.7838 43.0783 57.0314 42.4899C57.6332 42.2059 58.033 41.7025 58.1773 41.0541C58.3289 40.3785 58.4302 39.6841 58.4704 38.9916C58.5762 37.1527 58.6621 35.3143 58.2525 33.493C58.0222 32.4699 57.4333 31.8023 56.4701 31.4987C55.3451 31.1443 54.2283 31.2339 53.1354 31.6708C52.5167 31.9173 52.1141 32.3817 51.8178 33.059L51.8177 33.0564Z" fill="white"/>
<path d="M42.4325 33.8172C41.0422 33.8098 39.7181 33.8091 38.3956 33.7862C38.2562 33.784 38.0725 33.6808 37.9874 33.5652C36.605 31.6838 34.6378 30.9912 32.4747 30.7117C32.0264 30.6542 31.569 30.6774 31.1162 30.6711C30.9656 30.6691 30.8128 30.6725 30.6642 30.6991C30.0798 30.8024 29.5857 31.204 29.597 31.5913C29.6152 32.1848 30.0546 32.4229 30.5092 32.5778C31.4423 32.8951 32.389 33.1727 33.333 33.4568C34.8763 33.9216 36.4281 34.3561 37.9637 34.843C40.3442 35.5972 43.3051 38.1125 43.0642 41.8081C42.8764 44.6905 41.0293 46.9716 38.0499 47.7525C34.7014 48.6308 31.5214 48.1134 28.5036 46.4237C28.4203 46.377 28.3382 46.327 28.2516 46.2916C28.2022 46.2706 28.1428 46.2745 28.0137 46.2589C27.9898 46.4861 27.9597 46.7044 27.9465 46.9235C27.9324 47.1511 27.9347 47.3806 27.9279 47.6694C26.4087 47.6642 24.9226 47.6591 23.358 47.6536C23.3679 45.0417 23.3776 42.4576 23.3874 39.8092C24.7363 39.8154 26.0369 39.8163 27.3367 39.8346C27.4444 39.8361 27.5928 39.923 27.653 40.0179C29.3697 42.6888 31.9174 43.3611 34.8228 43.1548C35.2333 43.1256 35.6566 43.0373 36.0362 42.8801C36.2845 42.7771 36.6574 42.4718 36.6343 42.3092C36.5929 42.024 36.342 41.6538 36.0868 41.5418C35.3061 41.2007 34.4821 40.9637 33.6749 40.6884C31.4492 39.9317 29.161 39.324 27.0104 38.387C23.6803 36.9347 22.3642 33.2179 23.79 29.8074C24.4762 28.1653 25.7749 27.1996 27.3481 26.5851C29.715 25.6593 32.1425 25.7075 34.5536 26.3156C35.5121 26.5578 36.4064 27.072 37.3294 27.4633C37.5302 27.5485 37.7321 27.634 38.0012 27.7481C38.0289 27.3066 38.0521 26.9314 38.0781 26.5094C39.5234 26.5148 40.9376 26.5209 42.4528 26.527C42.4456 28.9581 42.4388 31.3516 42.4327 33.8198L42.4325 33.8172Z" fill="white"/>
<path d="M22.1229 26.0667C22.1172 27.8129 22.112 29.5152 22.1057 31.2813C21.0817 31.2841 20.0874 31.2867 19.0145 31.2889C18.9979 35.0203 18.9824 38.7093 18.9662 42.4673C20.0043 42.4782 20.9807 42.4894 22.0495 42.5006C22.0446 44.1991 22.0399 45.8726 22.0352 47.6407C17.5824 47.6215 13.1736 47.6033 8.6872 47.585C8.69328 45.8806 8.69834 44.1909 8.70472 42.4399C9.60861 42.4419 10.4731 42.4346 11.3371 42.4499C11.6476 42.4553 11.7793 42.3483 11.7801 42.0166C11.7872 38.5072 11.803 34.9976 11.8142 31.4874C11.8144 31.4319 11.7896 31.3773 11.7571 31.241C10.7802 31.2372 9.78905 31.2349 8.74174 31.2315C8.75052 29.4929 8.7603 27.7976 8.76895 26.0135C13.2124 26.0313 17.6238 26.0493 22.121 26.0684L22.1229 26.0667Z" fill="white"/>
<path d="M16.6715 50.0685C17.1444 49.9243 17.4675 50.0298 17.7697 50.4773C18.9268 52.1938 20.2994 53.7113 21.8779 55.0358C22.1981 55.3041 22.4456 55.3345 22.7854 55.1112C23.2804 54.7869 23.7861 54.4787 24.3086 54.2053C24.7686 53.9647 24.7348 53.7218 24.4508 53.3451C23.7791 52.4556 23.1377 51.5423 22.4901 50.6327C22.3798 50.4786 22.3034 50.2985 22.1894 50.0898C22.6539 49.9357 22.9602 49.9974 23.2537 50.4236C23.8965 51.3577 24.5922 52.2549 25.2893 53.1489C25.3974 53.2869 25.6651 53.4382 25.7959 53.3914C27.1184 52.9257 28.428 52.4216 29.889 51.8718C29.5842 51.2995 29.2877 50.7432 28.9771 50.1608C29.568 49.9404 29.8399 50.0721 30.0609 50.5256C30.644 51.721 30.6599 51.6936 31.9416 51.5123C33.0653 51.3536 34.1944 51.2212 35.3248 51.1159C36.2405 51.0307 36.2423 51.0567 36.2995 50.1479C36.748 50.0552 37.1352 50.0136 37.0878 50.7056C37.08 50.8134 37.2864 51.0221 37.4127 51.0416C39.0759 51.2883 40.7432 51.5154 42.4118 51.7241C42.5502 51.7412 42.7627 51.6292 42.8456 51.5091C43.0399 51.2253 43.2155 50.9147 43.3283 50.5888C43.5001 50.0922 43.8098 50.072 44.2853 50.2269L43.591 51.9501C43.8727 52.0695 44.0898 52.1691 44.3126 52.2547C45.2884 52.628 46.275 52.9744 47.2382 53.3789C47.6161 53.5379 47.8407 53.4386 48.0619 53.1461C48.6865 52.32 49.3603 51.5275 49.9259 50.6613C50.2272 50.2006 50.5333 50.0855 51.1243 50.259C50.5213 51.1233 49.9443 51.9506 49.3673 52.7778C49.3233 52.8413 49.2701 52.897 49.2227 52.9564C48.3006 54.0995 48.2898 53.7995 49.5733 54.6126C49.6539 54.6631 49.745 54.6967 49.8264 54.7451C51.0973 55.5011 51.1466 55.5498 52.1815 54.4659C53.3547 53.2373 54.4439 51.9239 55.5349 50.6151C55.8346 50.2561 56.1065 50.0885 56.6113 50.3051C55.1397 52.6835 53.3076 54.692 51.1435 56.3792C47.311 59.3691 42.9685 60.9824 38.1694 61.2822C28.1673 61.9065 20.2196 56.1243 16.6739 50.0658L16.6715 50.0685ZM42.3445 52.7587C42.307 52.6594 42.2679 52.5608 42.2304 52.4616C40.5472 52.2492 38.8626 52.0375 37.212 51.8301C37.1337 52.0242 37.096 52.0751 37.095 52.1265C37.0814 53.7519 37.0631 55.3767 37.0744 57.0013C37.0755 57.1268 37.2636 57.329 37.3965 57.3626C39.0575 57.7827 39.059 57.7758 40.0792 56.3435C40.1015 56.3126 40.1335 56.2882 40.1537 56.2564C40.884 55.0914 41.6138 53.9248 42.3445 52.7587ZM36.2655 51.9124C34.4684 51.9371 32.7797 52.0747 31.0524 52.5645C31.9337 54.3699 32.9397 55.9542 34.1135 57.4278C34.1806 57.5118 34.3484 57.5627 34.4607 57.5497C34.9662 57.4926 35.4727 57.4207 35.9721 57.3206C36.0782 57.2986 36.2363 57.1384 36.237 57.039C36.258 55.3586 36.2586 53.6771 36.2645 51.912L36.2655 51.9124ZM33.2993 58.0005L33.2468 57.7888C33.2385 57.7512 33.2386 57.7083 33.2191 57.6773C32.2641 56.116 31.3129 54.5512 30.3371 53.0049C30.259 52.8809 29.9728 52.7848 29.8318 52.8324C28.7893 53.1808 27.7579 53.5654 26.7258 53.946C26.2982 54.1031 26.3205 54.3348 26.6238 54.6237C28.099 56.0243 29.643 57.3304 31.4273 58.3027C31.5938 58.3935 31.8236 58.4556 31.9987 58.415C32.4399 58.3129 32.8662 58.1438 33.2974 58.0022L33.2993 58.0005ZM46.9418 54.2583C46.8444 54.1639 46.8013 54.0876 46.738 54.0645C45.6522 53.6711 44.5698 53.269 43.4719 52.9147C43.3435 52.8729 43.0677 53.0564 42.9692 53.2091C42.1376 54.5004 41.3306 55.8097 40.5183 57.1142C40.3619 57.3648 40.2135 57.6201 40.0327 57.9222C40.4574 58.1023 40.7784 58.28 41.1207 58.3683C41.3326 58.4228 41.6154 58.4114 41.8024 58.3076C43.5432 57.3475 45.1342 56.1723 46.5324 54.7336C46.6737 54.5877 46.799 54.4263 46.9418 54.2583ZM31.5781 59.6545C31.5856 59.7246 31.5935 59.7935 31.5999 59.8632C31.8017 59.9336 31.999 60.0273 32.206 60.0696C34.2354 60.4856 36.2845 60.6511 38.3476 60.4702C39.3442 60.3827 40.3336 60.215 41.3238 60.0667C41.4535 60.0472 41.5679 59.9253 41.6902 59.8508C41.6089 59.7318 41.5373 59.6042 41.4432 59.4986C41.3823 59.4299 41.2881 59.3887 41.2058 59.3425C38.3368 57.76 35.4245 57.745 32.4824 59.1086C32.1658 59.2559 31.8789 59.4701 31.5781 59.6545ZM50.1731 56.1054C50.063 55.9603 49.9882 55.7884 49.859 55.7059C49.4104 55.4172 48.9312 55.1799 48.4868 54.8868C48.0783 54.6176 47.7664 54.6129 47.3898 54.9885C45.9763 56.398 44.4499 57.6662 42.7611 58.7203C42.317 58.9979 42.3172 59.2051 42.774 59.4581C42.9449 59.5533 43.2077 59.57 43.4008 59.5155C45.6659 58.8698 47.7511 57.8247 49.7028 56.4906C49.842 56.3956 49.9663 56.2766 50.1727 56.1065L50.1731 56.1054ZM27.0065 58.4486C28.0713 58.818 29.0279 59.1869 30.0095 59.4604C30.2306 59.5225 30.5411 59.2527 30.8099 59.1356C30.6771 58.9581 30.5815 58.7219 30.408 58.6117C28.7176 57.5315 27.174 56.2672 25.7571 54.832C25.6199 54.693 25.2639 54.6355 25.0828 54.7153C24.5655 54.9454 24.0814 55.2579 23.5925 55.5518C23.087 55.8564 23.0745 56.0342 23.5861 56.3559C24.7428 57.0836 25.9165 57.7845 27.005 58.4492L27.0065 58.4486Z" fill="white"/>
<path d="M56.6238 23.7273C56.067 23.8813 55.7464 23.6873 55.4456 23.2454C54.2938 21.5463 52.9091 20.0679 51.3288 18.7755C51.0307 18.5317 50.8215 18.5377 50.5249 18.7301C50.0449 19.0417 49.547 19.3243 49.0518 19.6093C48.5037 19.9249 48.5035 20.0018 48.8774 20.5189C49.5978 21.5137 50.2942 22.5285 50.9983 23.5366C51.0284 23.5809 51.0387 23.6409 51.067 23.7172C50.5834 23.8758 50.266 23.7501 49.9637 23.3152C49.3396 22.4142 48.6674 21.5472 47.9746 20.7005C47.8519 20.55 47.5034 20.4616 47.3139 20.5227C46.1769 20.8916 45.0591 21.3229 43.9269 21.7103C43.6012 21.8222 43.5619 22.0177 43.6795 22.2847C43.8823 22.7406 44.1059 23.1877 44.3253 23.6481C43.6596 23.8709 43.3762 23.6547 43.1531 23.1423C42.6919 22.0844 42.6699 22.1268 41.5441 22.2998C40.3856 22.4778 39.2186 22.6156 38.0512 22.7241C37.1537 22.807 37.1505 22.7754 37.0123 23.6864C36.8052 23.6933 36.5869 23.7005 36.3885 23.7073C36.3444 23.6457 36.3057 23.6166 36.3014 23.5845C36.1992 22.7445 36.1951 22.7882 35.3693 22.6995C33.9803 22.5512 32.5923 22.3731 31.2149 22.1414C30.7143 22.058 30.4206 22.1241 30.276 22.6448C30.2199 22.8483 30.1065 23.0351 30.0248 23.2315C29.8345 23.6887 29.5192 23.8176 28.9894 23.6081C29.1689 23.2145 29.3357 22.8371 29.5141 22.4645C29.7019 22.0719 29.711 21.817 29.2036 21.6498C28.1588 21.3041 27.1297 20.9044 26.1109 20.4851C25.7391 20.3325 25.5126 20.412 25.2864 20.7138C24.6528 21.5562 23.988 22.3753 23.377 23.2349C23.1092 23.6125 22.8232 23.7817 22.268 23.6322C22.6139 23.073 22.917 22.5286 23.2718 22.0237C23.6895 21.4269 24.142 20.8536 24.6001 20.2878C24.8325 20.0012 24.8041 19.8427 24.4786 19.6668C23.8925 19.3527 23.2988 19.0392 22.7601 18.6504C22.3979 18.3883 22.1807 18.5272 21.9161 18.7471C20.3667 20.0358 19.0178 21.5232 17.8124 23.1497C17.4493 23.6384 17.452 23.6408 16.6353 23.5723C20.9526 17.1733 26.7976 13.4837 34.2437 12.7026C43.9766 11.6802 52.3847 16.7902 56.6238 23.7273ZM36.2583 21.8921C36.2717 20.4963 36.2923 19.1806 36.2955 17.8651C36.2987 16.5711 36.2911 16.5717 35.0198 16.4064C34.87 16.3871 34.7113 16.3135 34.5739 16.3462C34.3576 16.3972 34.0737 16.4573 33.9625 16.6172C33.0285 17.9762 32.1177 19.3539 31.2207 20.7399C30.9869 21.1004 31.0941 21.3567 31.5533 21.4175C32.6761 21.5665 33.7954 21.7456 34.9206 21.8792C35.3434 21.9297 35.7763 21.891 36.2594 21.8925L36.2583 21.8921ZM37.1648 21.9242C38.8653 21.8888 40.5178 21.7435 42.2133 21.2742C42.0902 21.0087 42.0208 20.8113 41.9148 20.6376C41.2824 19.6044 40.5833 18.6085 40.0191 17.5373C39.4479 16.4531 38.6826 16.1652 37.5664 16.5101C37.2304 16.6139 37.0947 16.7154 37.0978 17.0715C37.108 18.5215 37.0974 19.9714 37.1005 21.4209C37.1007 21.57 37.1377 21.7195 37.1648 21.9242ZM43.161 21.0422C43.3552 20.997 43.5988 20.9576 43.8318 20.8834C44.4807 20.675 45.1373 20.4812 45.7709 20.2283C47.2568 19.6349 47.2177 19.6587 46.0475 18.6866C44.7456 17.6044 43.3518 16.6372 41.9789 15.6486C41.5573 15.3449 40.49 15.5439 40.1583 15.9424C40.0939 16.0199 40.1047 16.2404 40.1666 16.3373C41.1497 17.8992 42.1459 19.4528 43.1625 21.0416L43.161 21.0422ZM26.3295 19.747C27.5973 20.1898 28.7505 20.6055 29.9157 20.9821C30.0321 21.0201 30.2795 20.8674 30.3651 20.7345C31.2805 19.3146 32.1815 17.8848 33.0698 16.4471C33.1541 16.3111 33.2056 16.0426 33.1331 15.9386C32.852 15.5366 31.8233 15.3985 31.3762 15.6558C29.7015 16.62 28.186 17.8032 26.7874 19.1482C26.6469 19.2831 26.5452 19.4622 26.329 19.7481L26.3295 19.747ZM31.6148 13.9945C33.0617 15.3705 34.8361 15.7289 36.7015 15.7242C38.5264 15.719 40.2476 15.3085 41.6902 14.0465C38.3235 13.1495 34.9803 13.1411 31.6143 13.9955L31.6148 13.9945ZM25.2279 19.1727C25.3267 19.1413 25.5604 19.0927 25.7705 18.9899C25.9003 18.9275 25.9837 18.7722 26.1027 18.6787C27.5743 17.5312 29.0504 16.3907 30.5193 15.2408C30.6706 15.1219 30.7824 14.9483 30.9123 14.8001C30.7121 14.637 30.5334 14.4085 30.3068 14.3326C30.1161 14.2682 29.8529 14.3409 29.6496 14.4239C28.4732 14.9061 27.2824 15.3596 26.141 15.9198C25.2406 16.3613 24.393 16.9223 23.5449 17.4693C23.1072 17.7522 23.1423 17.9615 23.5883 18.22C24.0811 18.5059 24.5745 18.7934 25.2268 19.1722L25.2279 19.1727ZM50.107 17.9924C49.986 17.8375 49.9038 17.6689 49.7718 17.575C47.7775 16.1677 45.6459 15.043 43.2941 14.4159C43.0654 14.3543 42.7562 14.6146 42.4835 14.7263C42.6188 14.9099 42.7167 15.1585 42.8953 15.2682C44.5433 16.2826 46.0267 17.5099 47.3874 18.8923C47.712 19.2231 47.976 19.3072 48.3697 19.0449C48.8136 18.7495 49.2885 18.5026 49.7484 18.2317C49.8454 18.1744 49.9365 18.1069 50.1066 17.9934L50.107 17.9924Z" fill="white"/>
</g>
<defs>
<clipPath id="clip0_715_4364">
<rect width="58.4787" height="48.593" fill="white" transform="matrix(0.920677 0.390324 -0.373716 0.927543 18.16 2.7085)"/>
</clipPath>
</defs>
</svg>
