<svg width="73" height="74" viewBox="0 0 73 74" fill="none" xmlns="http://www.w3.org/2000/svg">
<circle cx="36.5" cy="37" r="36.5" fill="#FD7A19"/>
<path d="M42.5385 21.4614H30.8462C31.4615 22.0768 32.4872 24.5383 32.6923 25.7691V33.7691C32.6923 35.7383 31.4615 39.1025 30.8462 40.5383L21 57.7691H53C50.7436 53.4614 45.7385 43.9845 43.7692 40.5383C41.8 37.0922 41.3077 34.5896 41.3077 33.7691V25.7691C41.3077 24.2922 41.9231 22.0768 42.5385 21.4614Z" stroke="white" stroke-width="3"/>
<path d="M32.6934 35H41.9241" stroke="white" stroke-width="2"/>
<path d="M29.6152 42.3845H36.9998" stroke="white" stroke-width="2"/>
<path d="M27.1543 46.0769H34.5389" stroke="white" stroke-width="2"/>
<path d="M25.5723 49.3298L32.4294 49.3298" stroke="white" stroke-width="2"/>
<circle cx="35.7682" cy="15.308" r="2.46154" fill="white"/>
<circle cx="43.1546" cy="12.8462" r="1.23077" fill="white"/>
</svg>
