<svg width="249" height="250" viewBox="0 0 249 250" fill="none" xmlns="http://www.w3.org/2000/svg">
<mask id="mask0_1376_3453" style="mask-type:alpha" maskUnits="userSpaceOnUse" x="0" y="0" width="249" height="250">
<path fill-rule="evenodd" clip-rule="evenodd" d="M0 51.6086V95.8446H249V51.6086L123.154 0L0 51.6086ZM51.1465 63.6729H194.49L122.482 34.1823L51.1465 63.6729Z" fill="#EE7509"/>
<path fill-rule="evenodd" clip-rule="evenodd" d="M249 198.391L249 154.155L0.00017626 154.155L0.000172377 198.391L125.846 250L249 198.391ZM197.854 186.327L54.5104 186.327L126.518 215.818L197.854 186.327Z" fill="#EE7509"/>
<path fill-rule="evenodd" clip-rule="evenodd" d="M49 100.536H0V148.794H49V100.536ZM24.5009 143.432C35.025 143.432 43.5564 135.03 43.5564 124.665C43.5564 114.3 35.025 105.898 24.5009 105.898C13.9768 105.898 5.44531 114.3 5.44531 124.665C5.44531 135.03 13.9768 143.432 24.5009 143.432Z" fill="black"/>
<path fill-rule="evenodd" clip-rule="evenodd" d="M98 100.536H51V148.794H98V100.536ZM73.8293 143.432C84.2122 143.432 92.6293 135.03 92.6293 124.665C92.6293 114.3 84.2122 105.898 73.8293 105.898C63.4463 105.898 55.0293 114.3 55.0293 124.665C55.0293 135.03 63.4463 143.432 73.8293 143.432Z" fill="black"/>
<path fill-rule="evenodd" clip-rule="evenodd" d="M149 100.536H100V148.794H149V100.536ZM124.501 143.432C135.025 143.432 143.556 135.03 143.556 124.665C143.556 114.3 135.025 105.898 124.501 105.898C113.977 105.898 105.445 114.3 105.445 124.665C105.445 135.03 113.977 143.432 124.501 143.432Z" fill="black"/>
<path fill-rule="evenodd" clip-rule="evenodd" d="M198 100.729H151V148.601H198V100.729ZM174.033 143.432C184.384 143.432 192.775 135.03 192.775 124.665C192.775 114.3 184.384 105.898 174.033 105.898C163.682 105.898 155.291 114.3 155.291 124.665C155.291 135.03 163.682 143.432 174.033 143.432Z" fill="black"/>
<path fill-rule="evenodd" clip-rule="evenodd" d="M249 100.536H200V148.794H249V100.536ZM224.501 143.432C235.025 143.432 243.557 135.03 243.557 124.665C243.557 114.3 235.025 105.898 224.501 105.898C213.977 105.898 205.445 114.3 205.445 124.665C205.445 135.03 213.977 143.432 224.501 143.432Z" fill="black"/>
</mask>
<g mask="url(#mask0_1376_3453)">
<path fill-rule="evenodd" clip-rule="evenodd" d="M-341 -23.41C-336.567 -31.8433 -323.458 -43.6498 -306.487 -23.41C-286.736 0.144161 -269.455 -14.537 -260.776 -21.9098C-260.133 -22.4562 -259.537 -22.9625 -258.991 -23.41C-258.526 -23.7914 -258.042 -24.1998 -257.538 -24.6249C-249.471 -31.4304 -236.3 -42.5414 -212.657 -16.4904C-187.653 11.0607 -178.858 -5.09603 -172.74 -16.3351L-172.655 -16.4904C-166.534 -27.7348 -146.691 -48.061 -125.265 -16.4904C-103.84 15.0802 -81.253 -18.2203 -77.2423 -25.7886C-73.3352 -33.1614 -56.3068 -64.1331 -16.4973 -13.9526C-1.33279 -5.05574 11.4387 -15.9059 18.5058 -21.9098C19.1489 -22.4562 19.7448 -22.9624 20.2909 -23.41C20.7563 -23.7914 21.2404 -24.1997 21.7444 -24.6249C29.8115 -31.4303 42.9825 -42.5413 66.6253 -16.4904C91.6297 11.0608 100.424 -5.09599 106.542 -16.3351L106.627 -16.4904C112.749 -27.7347 132.591 -48.061 154.017 -16.4904C175.443 15.0802 198.029 -18.2203 202.04 -25.7886C206.051 -33.3569 223.888 -65.7924 266 -9.78706V307L-13.2818 307L-61.7178 307L-341 307V-23.41Z" fill="#FD7A19"/>
<path fill-rule="evenodd" clip-rule="evenodd" d="M572 -16.4221C564.655 -24.3962 542.935 -35.56 514.814 -16.4221C482.089 5.84977 453.456 -8.03209 439.077 -15.0036C438.011 -15.5202 437.024 -15.9989 436.119 -16.4221C435.348 -16.7827 434.546 -17.1689 433.711 -17.5708C420.344 -24.0058 398.521 -34.5119 359.347 -9.87922C317.917 16.172 303.345 0.894855 293.208 -9.73237L293.068 -9.87922C282.925 -20.5114 250.047 -39.7311 214.547 -9.87922C179.046 19.9726 141.622 -11.5149 134.977 -18.6712C128.51 -25.6346 100.353 -54.8609 34.555 -7.64283C9.21783 1.06403 -12.1391 -9.29027 -23.9233 -15.0035C-24.9889 -15.5201 -25.9763 -15.9988 -26.8812 -16.4221C-27.6523 -16.7827 -28.4543 -17.1688 -29.2894 -17.5708C-42.6559 -24.0058 -64.4791 -34.5119 -103.653 -9.87918C-145.083 16.1721 -159.655 0.894894 -169.792 -9.73233L-169.932 -9.87918C-180.075 -20.5113 -212.953 -39.731 -248.453 -9.87918C-283.954 19.9727 -321.378 -11.5149 -328.023 -18.6712C-334.669 -25.8274 -364.223 -56.4971 -434 -3.54078V296L29 296L109 296L572 296V-16.4221Z" fill="#DF5F00" fill-opacity="0.7"/>
<path fill-rule="evenodd" clip-rule="evenodd" d="M49 100.536H0V148.794H49V100.536ZM24.5009 143.432C35.025 143.432 43.5564 135.03 43.5564 124.665C43.5564 114.3 35.025 105.898 24.5009 105.898C13.9768 105.898 5.44531 114.3 5.44531 124.665C5.44531 135.03 13.9768 143.432 24.5009 143.432Z" fill="black"/>
<path fill-rule="evenodd" clip-rule="evenodd" d="M98 100.536H51V148.794H98V100.536ZM73.8293 143.432C84.2122 143.432 92.6293 135.03 92.6293 124.665C92.6293 114.3 84.2122 105.898 73.8293 105.898C63.4463 105.898 55.0293 114.3 55.0293 124.665C55.0293 135.03 63.4463 143.432 73.8293 143.432Z" fill="black"/>
<path fill-rule="evenodd" clip-rule="evenodd" d="M149 100.536H100V148.794H149V100.536ZM124.501 143.432C135.025 143.432 143.556 135.03 143.556 124.665C143.556 114.3 135.025 105.898 124.501 105.898C113.977 105.898 105.445 114.3 105.445 124.665C105.445 135.03 113.977 143.432 124.501 143.432Z" fill="black"/>
<path fill-rule="evenodd" clip-rule="evenodd" d="M198 100.729H151V148.601H198V100.729ZM174.033 143.432C184.384 143.432 192.775 135.03 192.775 124.665C192.775 114.3 184.384 105.898 174.033 105.898C163.682 105.898 155.291 114.3 155.291 124.665C155.291 135.03 163.682 143.432 174.033 143.432Z" fill="black"/>
<path fill-rule="evenodd" clip-rule="evenodd" d="M249 100.536H200V148.794H249V100.536ZM224.501 143.432C235.025 143.432 243.557 135.03 243.557 124.665C243.557 114.3 235.025 105.898 224.501 105.898C213.977 105.898 205.445 114.3 205.445 124.665C205.445 135.03 213.977 143.432 224.501 143.432Z" fill="black"/>
</g>
</svg>
