<svg width="56" height="55" viewBox="0 0 56 55" fill="none" xmlns="http://www.w3.org/2000/svg">
<circle cx="27.832" cy="27.5" r="27.5" fill="#FD7A19"/>
<g clip-path="url(#clip0_715_5400)">
<path d="M31.5161 43.3132C31.0077 43.1633 30.5125 42.9769 30.0409 42.728C29.6665 42.5302 29.2806 42.3526 28.9189 42.1326C28.5069 41.8819 28.1167 41.5932 27.7163 41.3216C27.2074 40.9767 26.7356 40.5808 26.2691 40.1763C25.5508 39.5544 24.8645 38.8956 24.2227 38.1858C23.7695 37.6841 23.31 37.1875 22.8823 36.6629C22.413 36.0869 21.9633 35.4917 21.5275 34.8864C21.0833 34.2706 20.6537 33.6418 20.2421 33.0013C19.8528 32.3964 19.4865 31.7737 19.1252 31.1487C18.8575 30.6877 18.6012 30.2185 18.3611 29.7397C18.0664 29.1534 17.7863 28.5581 17.5137 27.9586C17.1428 27.1425 16.8132 26.3073 16.5151 25.4568C16.2245 24.6293 15.9679 23.7893 15.7587 22.9332C15.5641 22.1366 15.4062 21.3322 15.3085 20.5124C15.23 19.853 15.1849 19.1922 15.1898 18.5253C15.1936 17.7304 15.2566 16.94 15.4429 16.1635C15.6262 15.3984 15.9008 14.669 16.3229 14.0093C16.6606 13.4808 17.0567 13.0062 17.5643 12.6471C18.0815 12.281 18.5965 11.9114 19.1141 11.547C19.406 11.3418 19.7013 11.1421 19.9983 10.9451C20.4846 10.6217 20.997 10.5918 21.5255 10.7689C21.9535 10.9117 22.2428 11.2252 22.4819 11.6103C23.0444 12.5163 23.6149 13.4158 24.1809 14.3192C24.6568 15.0786 25.1299 15.8407 25.6033 16.6012C25.7281 16.8016 25.8597 16.9977 25.9732 17.2055C26.3943 17.9764 26.2039 19.0053 25.5546 19.5658C25.3347 19.7556 25.0933 19.9181 24.8592 20.0891C24.4883 20.3602 24.1039 20.6119 23.746 20.9007C23.3211 21.2442 23.0266 21.6942 22.8509 22.2347C22.7404 22.574 22.6998 22.9166 22.6942 23.2678C22.6895 23.5769 22.7581 23.8716 22.8453 24.1597C22.9661 24.559 23.0817 24.9613 23.2294 25.3499C23.4524 25.938 23.6849 26.5239 23.942 27.0955C24.3574 28.0203 24.8625 28.8902 25.425 29.7202C25.848 30.3445 26.306 30.9398 26.8008 31.5009C27.292 32.0572 27.8079 32.5872 28.3615 33.0744C28.589 33.2751 28.8073 33.4883 29.0775 33.6248C29.3996 33.7874 29.7262 33.9382 30.0974 33.9316C30.285 33.9279 30.4739 33.9404 30.661 33.9238C31.1431 33.88 31.5691 33.6645 31.9679 33.3813C32.3808 33.0874 32.7932 32.7925 33.2023 32.4914C33.4439 32.313 33.6985 32.1788 33.9865 32.107C34.2374 32.0447 34.4807 32.0632 34.722 32.114C35.2135 32.2166 35.5735 32.5178 35.8445 32.9539C36.4496 33.9258 37.0591 34.8937 37.6666 35.8644C38.1521 36.6393 38.636 37.4155 39.1207 38.191C39.2198 38.3504 39.3331 38.5022 39.4113 38.6726C39.5316 38.9336 39.619 39.2089 39.5937 39.5123C39.592 39.5359 39.6029 39.5604 39.6079 39.5846L39.4842 40.2112C39.4685 40.2377 39.4486 40.2625 39.4383 40.2916C39.3204 40.6191 39.1146 40.8748 38.8465 41.0735C38.0307 41.6786 37.2165 42.2872 36.3904 42.8758C36.1564 43.0429 35.8904 43.1662 35.6272 43.2756C35.2251 43.4423 34.8084 43.5461 34.3792 43.6036C33.9543 43.6611 33.5336 43.6675 33.111 43.6304C33.0483 43.6253 31.5717 43.3321 31.5157 43.3155L31.5161 43.3132Z" fill="white"/>
</g>
<defs>
<clipPath id="clip0_715_5400">
<rect width="28.251" height="30.0166" fill="white" transform="translate(16.6934 9.79492) rotate(11.1676)"/>
</clipPath>
</defs>
</svg>
