<svg width="72" height="73" viewBox="0 0 72 73" fill="none" xmlns="http://www.w3.org/2000/svg">
<circle cx="36" cy="36.5" r="36" fill="#FD7A19"/>
<path d="M14.5 24L36.5 11.5L58 24M14.5 24V49M14.5 24L23.5 29.1136M58 24V49M58 24L49.2045 29.1136M58 49L36.5 62M58 49L49.2045 44M36.5 62L14.5 49M36.5 62V51.5M14.5 49L23.5 44M36.5 36.5L23.5 29.1136M36.5 36.5L49.2045 29.1136M36.5 36.5V51.5M23.5 44V29.1136M23.5 44L36.5 51.5M23.5 29.1136L36.5 22L49.2045 29.1136M49.2045 29.1136V44M49.2045 44L36.5 51.5" stroke="white" stroke-width="3"/>
</svg>
