<svg width="72" height="73" viewBox="0 0 72 73" fill="none" xmlns="http://www.w3.org/2000/svg">
<circle cx="36" cy="36.5" r="36" fill="#FD7A19"/>
<rect x="25.6309" y="12.3044" width="20.7391" height="43.5652" stroke="white" stroke-width="3"/>
<rect x="46.6309" y="16.8696" width="5.21739" height="39" stroke="white" stroke-width="3"/>
<rect x="20.1523" y="16.8696" width="5.21739" height="39" stroke="white" stroke-width="3"/>
<rect x="29.6084" y="17.1958" width="1.82609" height="3.65217" stroke="white" stroke-width="1.82609"/>
<rect x="29.6084" y="26.3261" width="1.82609" height="3.65217" stroke="white" stroke-width="1.82609"/>
<rect x="29.6084" y="34.5437" width="1.82609" height="3.65217" stroke="white" stroke-width="1.82609"/>
<rect x="29.6084" y="43.674" width="1.82609" height="3.65217" stroke="white" stroke-width="1.82609"/>
<rect x="35.0869" y="17.1958" width="1.82609" height="3.65217" stroke="white" stroke-width="1.82609"/>
<rect x="35.0869" y="26.3261" width="1.82609" height="3.65217" stroke="white" stroke-width="1.82609"/>
<rect x="35.0869" y="34.5437" width="1.82609" height="3.65217" stroke="white" stroke-width="1.82609"/>
<rect x="35.0869" y="43.674" width="1.82609" height="3.65217" stroke="white" stroke-width="1.82609"/>
<rect x="40.5654" y="17.1958" width="1.82609" height="3.65217" stroke="white" stroke-width="1.82609"/>
<rect x="40.5654" y="26.3261" width="1.82609" height="3.65217" stroke="white" stroke-width="1.82609"/>
<rect x="40.5654" y="34.5437" width="1.82609" height="3.65217" stroke="white" stroke-width="1.82609"/>
<rect x="40.5654" y="43.674" width="1.82609" height="3.65217" stroke="white" stroke-width="1.82609"/>
<rect x="15" y="55.5437" width="42" height="3.65217" fill="white"/>
</svg>
