<svg width="72" height="72" viewBox="0 0 72 72" fill="none" xmlns="http://www.w3.org/2000/svg">
<circle cx="36" cy="36" r="36" fill="#FD7A19"/>
<path d="M46.8322 17H23.7623L20.5902 21.614L21.4553 28.2466L13.9576 33.4373L14.8227 38.9164L13.3809 44.6839L14.6283 51.0392H56.2154L54.6183 38.9164L52.5997 35.1676L50.0043 29.4001V22.7675L46.8322 17Z" fill="white"/>
<circle cx="23.0298" cy="23.3442" r="6.34423" fill="white"/>
<circle cx="18.3341" cy="34.0197" r="6.03922" fill="white"/>
<circle cx="15.0392" cy="44.9999" r="6.03922" fill="white"/>
<circle cx="46.5434" cy="23.3442" r="6.34423" fill="white"/>
<circle cx="50.5806" cy="33.7258" r="6.34423" fill="white"/>
<circle cx="56.2152" cy="44.451" r="6.58824" fill="white"/>
<circle cx="22.6875" cy="23.0005" r="4.90236" fill="#FD7A19"/>
<circle cx="29.2754" cy="34.0142" r="4.90236" fill="#FD7A19"/>
<circle cx="18.2949" cy="33.9807" r="4.90236" fill="#FD7A19"/>
<circle cx="15" cy="44.9612" r="4.90236" fill="#FD7A19"/>
<circle cx="25.4922" cy="44.9722" r="4.90236" fill="#FD7A19"/>
<circle cx="36.4512" cy="44.9722" r="4.90236" fill="#FD7A19"/>
<rect x="35.5859" y="29.6885" width="17.3024" height="1.73024" rx="0.865122" fill="#FD7A19"/>
<rect x="35.5859" y="37.1863" width="17.3024" height="1.73024" rx="0.865122" fill="#FD7A19"/>
<rect x="42.5059" y="42.377" width="5.76748" height="1.73024" rx="0.865122" fill="#FD7A19"/>
<rect x="30.9727" y="23.9209" width="5.76748" height="1.73024" rx="0.865122" fill="#FD7A19"/>
<rect x="38.4688" y="23.9209" width="7.49772" height="1.73024" rx="0.865122" fill="#FD7A19"/>
<rect x="41.9297" y="30.842" width="1.73024" height="2.88374" fill="#FD7A19"/>
<rect x="46.5449" y="30.842" width="1.73024" height="2.88374" fill="#FD7A19"/>
<rect x="50.0039" y="34.3025" width="1.73024" height="2.88374" fill="#FD7A19"/>
<rect x="40.1992" y="34.3025" width="2.88374" height="2.88374" fill="#FD7A19"/>
<rect x="54.6191" y="42.377" width="9.80471" height="1.73024" rx="0.865122" fill="#FD7A19"/>
<rect x="47.1211" y="23.9209" width="9.80471" height="1.73024" rx="0.865122" fill="#FD7A19"/>
<rect x="50.0039" y="42.377" width="2.88374" height="1.73024" rx="0.865122" fill="#FD7A19"/>
<rect x="39.0469" y="20.4604" width="2.88374" height="1.73024" rx="0.865122" fill="#FD7A19"/>
<rect x="43.6602" y="20.4604" width="14.4187" height="1.73024" rx="0.865122" fill="#FD7A19"/>
<rect x="49.4277" y="45.8374" width="6.92097" height="1.73024" rx="0.865122" fill="#FD7A19"/>
<rect x="58.0781" y="45.8374" width="6.92097" height="1.73024" rx="0.865122" fill="#FD7A19"/>
<rect x="42.5059" y="45.8374" width="3.46049" height="1.73024" rx="0.865122" fill="#FD7A19"/>
<rect x="36.1621" y="33.1489" width="18.4559" height="1.73024" rx="0.865122" fill="#FD7A19"/>
<rect x="41.9297" y="40.0698" width="17.3024" height="1.73024" rx="0.865122" fill="#FD7A19"/>
<rect x="30.9727" y="20.4604" width="5.76748" height="1.73024" rx="0.865122" fill="#FD7A19"/>
<rect x="41.9297" y="48.1443" width="17.3024" height="1.73024" rx="0.865122" fill="#FD7A19"/>
</svg>
