<?xml version="1.0" encoding="utf-8"?>
<!-- Generator: Adobe Illustrator 26.4.1, SVG Export Plug-In . SVG Version: 6.00 Build 0)  -->
<svg version="1.1" id="Layer_1" xmlns="http://www.w3.org/2000/svg" xmlns:xlink="http://www.w3.org/1999/xlink" x="0px" y="0px"
	 viewBox="0 0 512 512" style="enable-background:new 0 0 512 512;" xml:space="preserve">
<style type="text/css">
	.st0{fill:#FFFFFF;}
</style>
<g id="sound_medium">
	<g>
		<g>
			<path class="st0" d="M391.7,413c-5.5,0-11-2.1-15.1-6.3c-8.3-8.4-8.3-21.9,0.1-30.2c32.3-32,50-74.8,50-120.5
				s-17.8-88.5-50-120.5c-8.4-8.3-8.4-21.8-0.1-30.2c8.3-8.4,21.8-8.4,30.2-0.1c40.4,40.1,62.6,93.7,62.6,150.8
				s-22.2,110.7-62.6,150.8C402.6,410.9,397.1,413,391.7,413L391.7,413z"/>
		</g>
		<g>
			<path class="st0" d="M331.3,352.6c-5.5,0-11-2.1-15.2-6.3c-8.3-8.4-8.2-21.9,0.2-30.2c15.9-15.7,25-37.7,25-60.1
				s-9.1-44.4-25-60.1c-8.4-8.3-8.4-21.8-0.2-30.2c8.3-8.4,21.8-8.4,30.2-0.2c24,23.7,37.7,56.7,37.7,90.5s-13.7,66.8-37.7,90.5
				C342.1,350.6,336.7,352.6,331.3,352.6z"/>
		</g>
		<g>
			<path class="st0" d="M256,469.3c-5.5,0-11-2.2-15.1-6.3L140.5,362.7H85.3c-23.5,0-42.7-19.1-42.7-42.7V192
				c0-23.5,19.1-42.7,42.7-42.7h55.2L240.9,48.9c6.1-6.1,15.3-7.9,23.3-4.6s13.2,11.1,13.2,19.7v384c0,8.6-5.2,16.4-13.2,19.7
				C261.5,468.8,258.8,469.3,256,469.3z"/>
		</g>
	</g>
</g>
<path class="st0" d="M461.5,461.5L461.5,461.5c-9.1,9.1-23.7,9.1-32.8,0L50.5,83.2c-9.1-9.1-9.1-23.7,0-32.8l0,0
	c9.1-9.1,23.7-9.1,32.8,0l378.3,378.3C470.6,437.8,470.6,452.5,461.5,461.5z"/>
</svg>
