<svg width="72" height="73" viewBox="0 0 72 73" fill="none" xmlns="http://www.w3.org/2000/svg">
<circle cx="36" cy="36.5" r="36" fill="#FD7A19"/>
<circle cx="36" cy="36.5" r="18.5" stroke="white" stroke-width="3"/>
<path d="M28.1846 10.7629L23.32 15.6957L16.129 17.6188L14.8854 25.2641L9.44341 30.0568L12.0839 36.8105L9.68568 44.1756L15.1958 49.1803L17.1189 56.3713L24.1869 57.4749L29.5569 63.0569L36.8879 60.5564L43.8158 62.2373L48.8205 56.7272L55.8714 55.3814L57.115 47.7361L62.557 42.9434L60.0565 35.6124L62.3147 28.8246L56.8046 23.8199L54.8815 16.6289L47.8136 15.5254L42.4435 9.94331L35.1125 12.4438L28.1846 10.7629Z" stroke="white" stroke-width="3"/>
<path d="M34.1456 48.892V34.9C34.1456 33.14 34.1456 31.688 34.2776 30.104C33.5736 30.544 32.9576 30.896 32.4296 31.204L30.1416 32.48L27.9416 28.52L35.0256 24.692H39.0296V48.892H34.1456Z" fill="white"/>
</svg>
