<svg width="55" height="55" viewBox="0 0 55 55" fill="none" xmlns="http://www.w3.org/2000/svg">
<circle cx="27.5" cy="27.5" r="27.5" fill="#FD7A19"/>
<path d="M34.4453 19.3254C37.112 19.0258 42.4453 19.685 42.4453 24.7192H34.4453" stroke="white" stroke-width="3"/>
<path d="M42.8131 24.7197L46.0009 27.2197V34.7197H34.4453" stroke="white" stroke-width="3"/>
<path d="M13.5273 22.0781V17.1514H34.3015V35.0106H15.0327" stroke="white" stroke-width="3"/>
<path d="M6 24.9326H16.8387M10.2151 29.1601H21.0538" stroke="white" stroke-width="3"/>
<path d="M20.5 36.0831C20.5 37.546 19.3491 38.674 18 38.674C16.6509 38.674 15.5 37.546 15.5 36.0831C15.5 34.6202 16.6509 33.4922 18 33.4922C19.3491 33.4922 20.5 34.6202 20.5 36.0831Z" fill="#FD7A19" stroke="white" stroke-width="3"/>
<path d="M40.9453 36.0831C40.9453 37.546 39.7944 38.674 38.4453 38.674C37.0962 38.674 35.9453 37.546 35.9453 36.0831C35.9453 34.6202 37.0962 33.4922 38.4453 33.4922C39.7944 33.4922 40.9453 34.6202 40.9453 36.0831Z" fill="#FD7A19" stroke="white" stroke-width="3"/>
</svg>
