<svg width="56" height="55" viewBox="0 0 56 55" fill="none" xmlns="http://www.w3.org/2000/svg">
<circle cx="27.832" cy="27.5" r="27.5" fill="#FD7A19"/>
<path d="M34.7773 19.3254C37.444 19.0258 42.7773 19.685 42.7773 24.7192H34.7773" stroke="white" stroke-width="3"/>
<path d="M43.1452 24.7197L46.3329 27.2197V34.7197H34.7773" stroke="white" stroke-width="3"/>
<path d="M13.8594 22.0781V17.1514H34.6336V35.0106H15.3648" stroke="white" stroke-width="3"/>
<path d="M6.33203 24.9326H17.1707M10.5471 29.1601H21.3858" stroke="white" stroke-width="3"/>
<path d="M20.832 36.0831C20.832 37.546 19.6811 38.674 18.332 38.674C16.9829 38.674 15.832 37.546 15.832 36.0831C15.832 34.6202 16.9829 33.4922 18.332 33.4922C19.6811 33.4922 20.832 34.6202 20.832 36.0831Z" fill="#FD7A19" stroke="white" stroke-width="3"/>
<path d="M41.2773 36.0831C41.2773 37.546 40.1265 38.674 38.7773 38.674C37.4282 38.674 36.2773 37.546 36.2773 36.0831C36.2773 34.6202 37.4282 33.4922 38.7773 33.4922C40.1265 33.4922 41.2773 34.6202 41.2773 36.0831Z" fill="#FD7A19" stroke="white" stroke-width="3"/>
</svg>
