<svg width="56" height="55" viewBox="0 0 56 55" fill="none" xmlns="http://www.w3.org/2000/svg">
<circle cx="27.832" cy="27.5" r="27.5" fill="#FD7A19"/>
<path d="M23.8929 36.0107C18.3865 40.2657 12.4213 37.7836 10.127 36.0107V38.2008C10.7527 38.9308 12.9427 40.3908 16.6971 40.3908C20.4514 40.3908 23.0586 38.9308 23.8929 38.2008V36.0107Z" fill="white"/>
<path d="M39.5355 36.0107C34.0291 40.2657 28.0639 37.7836 25.7695 36.0107V38.2008C26.3953 38.9308 28.5853 40.3908 32.3396 40.3908C36.094 40.3908 38.7012 38.9308 39.5355 38.2008V36.0107Z" fill="white"/>
<path d="M39.5355 25.374C34.0291 29.629 28.0639 27.1469 25.7695 25.374V27.5641C26.3953 28.2941 28.5853 29.7541 32.3396 29.7541C36.094 29.7541 38.7012 28.2941 39.5355 27.5641V25.374Z" fill="white"/>
<path d="M23.8929 32.8828C18.3865 37.1377 12.4213 34.6557 10.127 32.8828V35.0729C10.7527 35.8029 12.9427 37.2629 16.6971 37.2629C20.4514 37.2629 23.0586 35.8029 23.8929 35.0729V32.8828Z" fill="white"/>
<path d="M39.5355 32.8828C34.0291 37.1377 28.0639 34.6557 25.7695 32.8828V35.0729C26.3953 35.8029 28.5853 37.2629 32.3396 37.2629C36.094 37.2629 38.7012 35.8029 39.5355 35.0729V32.8828Z" fill="white"/>
<path d="M39.5355 22.2451C34.0291 26.5001 28.0639 24.018 25.7695 22.2451V24.4352C26.3953 25.1652 28.5853 26.6252 32.3396 26.6252C36.094 26.6252 38.7012 25.1652 39.5355 24.4352V22.2451Z" fill="white"/>
<path d="M23.8929 29.1279C18.3865 33.3829 12.4213 30.9008 10.127 29.1279V31.318C10.7527 32.048 12.9427 33.508 16.6971 33.508C20.4514 33.508 23.0586 32.048 23.8929 31.318V29.1279Z" fill="white"/>
<path d="M39.5355 29.1279C34.0291 33.3829 28.0639 30.9008 25.7695 29.1279V31.318C26.3953 32.048 28.5853 33.508 32.3396 33.508C36.094 33.508 38.7012 32.048 39.5355 31.318V29.1279Z" fill="white"/>
<path d="M39.5355 18.4912C34.0291 22.7461 28.0639 20.2641 25.7695 18.4912V20.6813C26.3953 21.4113 28.5853 22.8713 32.3396 22.8713C36.094 22.8713 38.7012 21.4113 39.5355 20.6813V18.4912Z" fill="white"/>
<ellipse cx="17.0099" cy="26.6257" rx="6.88298" ry="3.12863" fill="white"/>
<ellipse cx="32.6525" cy="15.988" rx="6.88298" ry="3.12863" fill="white"/>
<path d="M35.4689 26.9381L39.849 24.748L43.2904 32.2568L41.4132 42.5812L36.0946 42.8941C29.0865 36.8871 32.1317 29.9624 34.5303 27.2509L35.4689 26.9381Z" fill="#FD7A19"/>
<circle cx="40.1623" cy="34.134" r="6.88298" fill="white"/>
</svg>
