<svg width="72" height="73" viewBox="0 0 72 73" fill="none" xmlns="http://www.w3.org/2000/svg">
<circle cx="36" cy="36.5" r="36" fill="#FD7A19"/>
<path d="M48.7547 28.0143H56.9849V46.4142M48.7547 28.0143V17.5H18V49.919C18 51.8174 19.2129 55.7894 24.0643 56.4904H48.7547C51.6425 56.6364 57.3314 55.1761 56.9849 48.1666V46.4142M48.7547 28.0143C48.7547 33.4174 48.7547 44.4866 48.7547 45.538C48.7547 46.8523 48.7547 49.0428 52.22 49.919C54.9923 50.6199 56.5517 47.8745 56.9849 46.4142M37.0593 23.5H44.8562M37.0593 29.5H44.8562M22.3317 37.5H44.8562M22.3317 44H44.8562M23.6311 51.2333H44.8562M23.6311 23.5H33.5939V31.9571H23.6311V23.5Z" stroke="white" stroke-width="3"/>
</svg>
