<svg width="72" height="73" viewBox="0 0 72 73" fill="none" xmlns="http://www.w3.org/2000/svg">
<circle cx="36" cy="36.5" r="36" fill="#FD7A19"/>
<path d="M24.5 17L21.5 22L16 25L16.5 31.5L13 36.5L16.5 41.5L16 48L21.5 51L24.5 56.5L30.5 56L36 59.5L41.5 56H47.5L50.5 50.5L56 48L55.5 41.5L59 36.5L55.5 31L56 25L50.5 22L47.5 16.5L41.5 17L36 13.5L30.5 17H24.5Z" stroke="white" stroke-width="3"/>
<circle cx="36" cy="36.5" r="14" stroke="white" stroke-width="3"/>
<path d="M29.5 35.5L34 40.5L42.5 32.5" stroke="white" stroke-width="3"/>
</svg>
