<svg width="72" height="72" viewBox="0 0 72 72" fill="none" xmlns="http://www.w3.org/2000/svg">
<circle cx="36" cy="36" r="36" fill="#FD7A19"/>
<rect x="30" y="35" width="11" height="3" fill="#FD7A19"/>
<rect x="30" y="33" width="11" height="7" fill="#FD7A19"/>
<path d="M32.1081 15.75H27.7297L23.3514 23.5L27.7297 31.5H32.1081V33.5H34.0541V36.25C35.6108 36.45 36.3243 37.1667 36.4865 37.5C35.3189 37.3 34.7027 38.0833 34.5405 38.5L35.5135 39.5C36.2919 39.1 36.6486 39.3333 36.7297 39.5C35.7568 41.7 33.7297 40.4167 32.8378 39.5L31.6216 41C34.7351 44.2 37.4595 42.5 38.4324 41.25L45.7297 47H27.2432L31.1351 43.25L30.1622 42L24.8108 47H18V49.5H19.4595V54.5H18V57H54V54.5H52.0541V49.5H54V47H48.1622L38.9189 39.5C39.5027 36.5 37.2162 35.25 36 35V33.5H37.7027V31.5H42.3243L46.7027 23.5L42.3243 15.75H37.7027V13H36.4865V10H36.2432H33.3243V13H32.1081V15.75Z" fill="white"/>
</svg>
